<svg width="24.000000" height="24.000000" viewBox="0 0 24 24" fill="none" xmlns="http://www.w3.org/2000/svg" xmlns:xlink="http://www.w3.org/1999/xlink">
	<desc>
			Created with Pixso.
	</desc>
	<defs>
		<clipPath id="clip5_543">
			<rect id="Frame" width="24.000000" height="24.000000" fill="white" fill-opacity="0"/>
		</clipPath>
	</defs>
	<rect id="Frame" width="24.000000" height="24.000000" fill="#FFFFFF" fill-opacity="0"/>
	<g clip-path="url(#clip5_543)">
		<path id="Vector" d="M2.25 12L11.204 3.04517C11.644 2.60596 12.356 2.60596 12.795 3.04517L21.75 12M4.5 9.75L4.5 19.875C4.5 20.4961 5.004 21 5.625 21L9.75 21L9.75 16.125C9.75 15.5042 10.254 15 10.875 15L13.125 15C13.746 15 14.25 15.5042 14.25 16.125L14.25 21L18.375 21C18.996 21 19.5 20.4961 19.5 19.875L19.5 9.75M8.25 21L16.5 21" stroke="#12132D" stroke-opacity="0.600000" stroke-width="1.500000" stroke-linejoin="round"/>
	</g>
</svg>
